<?xml version="1.0" encoding="iso-8859-1"?>
<!-- Uploaded to: SVG Repo, www.svgrepo.com, Generator: SVG Repo Mixer Tools -->
<svg height="800px" width="800px" version="1.1" id="Layer_1" xmlns="http://www.w3.org/2000/svg" xmlns:xlink="http://www.w3.org/1999/xlink" 
	 viewBox="0 0 512 512" xml:space="preserve">
<path style="fill:#D80027;" d="M256,416c-65.314,0-127.203-14.811-174.269-41.706C29.026,344.176,0,302.166,0,256
	s29.026-88.176,81.731-118.294C128.797,110.811,190.686,96,256,96s127.203,14.811,174.269,41.706
	C482.974,167.824,512,209.834,512,256s-29.026,88.176-81.731,118.294C383.203,401.189,321.314,416,256,416z M256,160
	c-113.149,0-192,50.594-192,96s78.851,96,192,96s192-50.594,192-96S369.149,160,256,160z"/>
<path style="fill:#AED5F3;" d="M256,512c-46.166,0-88.176-29.027-118.294-81.731C110.811,383.203,96,321.312,96,256
	s14.811-127.203,41.706-174.269C167.824,29.027,209.834,0,256,0c46.165,0,88.176,29.027,118.294,81.731
	C401.189,128.797,416,190.688,416,256s-14.811,127.203-41.706,174.269C344.176,482.973,302.165,512,256,512z M256,64
	c-45.406,0-96,78.851-96,192s50.594,192,96,192s96-78.851,96-192S301.406,64,256,64z"/>
<g>
	<path style="fill:#78B9EB;" d="M256,512v-64c45.406,0,96-78.851,96-192S301.406,64,256,64V0c46.165,0,88.176,29.027,118.294,81.731
		C401.189,128.797,416,190.688,416,256s-14.811,127.203-41.706,174.269C344.176,482.973,302.165,512,256,512z"/>
	<circle style="fill:#78B9EB;" cx="256" cy="256" r="64"/>
</g>
<path style="fill:#5A8BB0;" d="M256,192c35.346,0,64,28.653,64,64s-28.654,64-64,64"/>
<path style="fill:#A2001D;" d="M256,416v-64c113.149,0,192-50.594,192-96s-78.851-96-192-96V96
	c65.314,0,127.203,14.811,174.269,41.706C482.974,167.824,512,209.834,512,256s-29.026,88.176-81.731,118.294
	C383.203,401.189,321.314,416,256,416z"/>
</svg>